# xmcd
#
# Track frame offsets: 
#        150
#        57487
#        112282
#        151080
#
# Disc length: 2628 seconds
#
# Revision: 3
# Processed by: cddbd v1.5.2PL0 Copyright (c) Steve Scherf et al.
# Submitted via: ExactAudioCopy v1.0b3
#
DISCID=310a4204
DTITLE=Royal Concertgebouw O, Carlo Maria Giulini - Dvořák, Symphonie 
DTITLE=N°7
DYEAR=1993
DGENRE=Romantique
TTITLE0=I. Allegro maestoso
TTITLE1=II. Poco adagio
TTITLE2=III. Scherzo: Vivace
TTITLE3=IV. Finale: Allegro
EXTD=YEAR: 1993
EXTT0=
EXTT1=
EXTT2=
EXTT3=
PLAYORDER=
